<svg width="605" height="352" viewBox="0 0 605 352" fill="none" xmlns="http://www.w3.org/2000/svg">
<g style="mix-blend-mode:hard-light">
<g style="mix-blend-mode:hard-light">
<g style="mix-blend-mode:hard-light">
<g style="mix-blend-mode:hard-light">
<path d="M458.85 272.21V270.87C458.85 264.42 462.58 263.35 484.2 262.67C532.16 261.33 545.52 253.8 545.52 230.96V230.42C545.52 207.18 529.6 199.25 481.84 199.25C430.54 199.25 418.16 209.86 418.55 232.3V233.64L462.38 234.18V230.96C462.38 224.91 466.51 223.3 481.44 223.3C498.74 223.3 501.69 224.91 501.69 230.82V230.95C501.69 236.06 498.15 238.88 470.83 239.82C448.98 240.6 435.36 242.64 427.11 246.77V240.41H335.85V261.2L327.84 240.19C311.24 239.42 294.8 237.31 278.78 233.9L264.14 272.31C259.35 237.84 228.4 212.22 189.57 212.22C180 212.22 170.92 213.79 162.58 216.65V174.35L184.79 139.95C181.79 133.9 179.3 127.63 177.34 121.18H154.66L143.87 142.63H143.61L132.95 95.95H72.94L54.87 144.84L36.15 121.18H0V215.3H34.84V169.41H35.1L52.26 191.51L69.03 169.84H69.29V215.3H108.03V139.15L123.83 175.52V229.47H139.36C128.45 238.38 120.46 250.24 116.72 263.88C116.95 262.58 117.07 261.25 117.07 259.89C117.07 237.4 87.17 235.97 73 235.97H35.3V330.09H74.82C91.73 330.09 115.6 326.75 119.2 306.73C129.84 333 156.92 351.12 189.57 351.12C218.5 351.12 243.06 336.9 255.68 315.4H286.18L289.82 303.05H311.4L314.65 315.4H356.51L340.11 272.37H362.11V315.4H382.93L362.11 323.93V334.52H400.85V272.38H415.6V296.51H545.91V272.06C535.1 272.19 529.2 272.19 520.16 272.19H458.84L458.85 272.21ZM74.05 262.52H75.48C80.29 262.52 82.76 264.99 82.76 268.37C82.76 271.75 80.42 274.22 75.48 274.22H74.05V262.52ZM75.74 304.9H74.05V290.34H75.74C81.72 290.34 84.71 293.59 84.71 297.62C84.71 301.65 81.85 304.9 75.74 304.9ZM102.91 279.03V278.77C110.42 276.14 114.46 271.61 116.13 266.32C114.97 271.25 114.35 276.39 114.35 281.7C114.35 283.31 114.43 284.89 114.54 286.47C111.98 283.58 108.26 281.02 102.92 279.04L102.91 279.03ZM189.58 320.07C168.85 320.07 152.14 303.36 152.14 282.63C152.14 261.9 168.86 245.19 189.58 245.19C210.3 245.19 227.02 261.91 227.02 282.63C227.02 303.35 210.31 320.07 189.58 320.07ZM296.6 279.42L300.76 260.31H301.02L305.18 279.42H296.6Z" fill="white"/>
</g>
</g>
<g style="mix-blend-mode:hard-light">
<g style="mix-blend-mode:hard-light">
<path d="M544.19 193.84C547.09 193.8 549.33 193.8 550.78 193.8H552.88V206.8C552.88 209.08 552.88 210.68 552.84 212.23H561.02C560.98 210.64 560.98 209.04 560.98 206.76V193.8H564.17C565.62 193.8 567.5 193.8 569.67 193.84V186.53H544.18V193.84H544.19Z" fill="white"/>
</g>
</g>
<g style="mix-blend-mode:hard-light">
<g style="mix-blend-mode:hard-light">
<path d="M604.66 190.91C604.66 189.17 604.66 187.83 604.7 186.53H592.03L590.07 195.69C589.53 198.19 589.02 200.83 588.58 203.29C588.07 200.83 587.57 198.18 587.02 195.69L585.03 186.53H571.85C571.89 187.83 571.89 189.17 571.89 190.95V206.81C571.89 209.09 571.89 210.69 571.85 212.24H579.67C579.63 209.34 579.63 207.71 579.63 205.18C579.63 202.79 579.59 197.72 579.59 193.88C580.31 196.78 581.22 200.25 582.05 203.48L584.33 212.24H591.9L594.14 203.59C594.97 200.37 595.88 196.89 596.6 194C596.56 198.2 596.53 203.49 596.53 205.19C596.53 208.09 596.53 209.39 596.49 212.25H604.67C604.63 210.73 604.63 209.14 604.63 206.96V190.92L604.66 190.91Z" fill="white"/>
</g>
</g>
<g style="mix-blend-mode:hard-light">
<g style="mix-blend-mode:hard-light">
<path d="M472.18 91.19C464.41 108.65 421.9 139.7 373.02 164.8C282.03 211.52 359.86 228.78 422.31 195.5C520.33 143.27 479.67 70.33 457.28 47.93C433.44 24.09 399.57 7.84999 361.9 2.18999C323.72 -3.54001 284.06 2.07999 250.29 18.01C216.5 33.77 194.52 58.15 188.39 86.68C184.63 104.21 187.35 122.35 195.85 139.14C277.2 110.99 403.41 73.1 472.17 91.2L472.18 91.19ZM264.33 94.96C264.33 94.96 306.71 89.61 350.07 91.34C318.62 95.99 258.7 113.37 237.22 121.67C253 105.41 273.07 100.84 264.33 94.96Z" fill="white"/>
</g>
</g>
<g style="mix-blend-mode:hard-light">
<g style="mix-blend-mode:hard-light">
<path d="M204.95 153.68C204.95 153.68 235.23 194.85 302.27 208.47C302.79 208.58 302.99 207.82 302.49 207.66C277.84 199.79 242 180.53 293.69 179.72C324.23 179.41 353.63 172.19 371.7 161.27C409.06 138.7 381.62 116.82 204.96 153.68H204.95Z" fill="white"/>
</g>
</g>
</g>
</g>
</svg>
