<?xml version="1.0" encoding="UTF-8"?><svg xmlns="http://www.w3.org/2000/svg" viewBox="0 0 604.69 351.15"><defs><style>.e{fill:#fff;}.f{isolation:isolate;}.g{mix-blend-mode:hard-light;}</style></defs><g class="f"><g id="a"/><g id="b"><g id="c"><g id="d" class="g"><g><path class="e" d="M458.85,272.21v-1.34c0-6.45,3.73-7.52,25.35-8.2,47.96-1.34,61.32-8.87,61.32-31.71v-.54c0-23.24-15.92-31.17-63.68-31.17-51.3,0-63.68,10.61-63.29,33.05v1.34l43.83,.54v-3.22c0-6.05,4.13-7.66,19.06-7.66,17.3,0,20.25,1.61,20.25,7.52v.13c0,5.11-3.54,7.93-30.86,8.87-21.85,.78-35.47,2.82-43.72,6.95v-6.36h-91.26v20.79l-8.01-21.01c-16.6-.77-33.04-2.88-49.06-6.29l-14.64,38.41c-4.79-34.47-35.74-60.09-74.57-60.09-9.57,0-18.65,1.57-26.99,4.43v-42.3l22.21-34.4c-3-6.05-5.49-12.32-7.45-18.77h-22.68l-10.79,21.45h-.26l-10.66-46.68h-60.01l-18.07,48.89-18.72-23.66H0v94.12H34.84v-45.89h.26l17.16,22.1,16.77-21.67h.26v45.46h38.74v-76.15l15.8,36.37v53.95h15.53c-10.91,8.91-18.9,20.77-22.64,34.41,.23-1.3,.35-2.63,.35-3.99,0-22.49-29.9-23.92-44.07-23.92H35.3v94.12h39.52c16.91,0,40.78-3.34,44.38-23.36,10.64,26.27,37.72,44.39,70.37,44.39,28.93,0,53.49-14.22,66.11-35.72h30.5l3.64-12.35h21.58l3.25,12.35h41.86l-16.4-43.03h22v43.03h20.82l-20.82,8.53v10.59h38.74v-62.14h14.75v24.13h130.31v-24.45c-10.81,.13-16.71,.13-25.75,.13h-61.32Zm-384.8-9.69h1.43c4.81,0,7.28,2.47,7.28,5.85s-2.34,5.85-7.28,5.85h-1.43v-11.7Zm1.69,42.38h-1.69v-14.56h1.69c5.98,0,8.97,3.25,8.97,7.28s-2.86,7.28-8.97,7.28Zm27.17-25.87v-.26c7.51-2.63,11.55-7.16,13.22-12.45-1.16,4.93-1.78,10.07-1.78,15.38,0,1.61,.08,3.19,.19,4.77-2.56-2.89-6.28-5.45-11.62-7.43Zm86.67,41.04c-20.73,0-37.44-16.71-37.44-37.44s16.72-37.44,37.44-37.44,37.44,16.72,37.44,37.44-16.71,37.44-37.44,37.44Zm107.02-40.65l4.16-19.11h.26l4.16,19.11h-8.58Z"/><path class="e" d="M544.19,193.84c2.9-.04,5.14-.04,6.59-.04h2.1v13c0,2.28,0,3.88-.04,5.43h8.18c-.04-1.59-.04-3.19-.04-5.47v-12.96h3.19c1.45,0,3.33,0,5.5,.04v-7.31h-25.49v7.31Z"/><path class="e" d="M604.66,190.91c0-1.74,0-3.08,.04-4.38h-12.67l-1.96,9.16c-.54,2.5-1.05,5.14-1.49,7.6-.51-2.46-1.01-5.11-1.56-7.6l-1.99-9.16h-13.18c.04,1.3,.04,2.64,.04,4.42v15.86c0,2.28,0,3.88-.04,5.43h7.82c-.04-2.9-.04-4.53-.04-7.06,0-2.39-.04-7.46-.04-11.3,.72,2.9,1.63,6.37,2.46,9.6l2.28,8.76h7.57l2.24-8.65c.83-3.22,1.74-6.7,2.46-9.59-.04,4.2-.07,9.49-.07,11.19,0,2.9,0,4.2-.04,7.06h8.18c-.04-1.52-.04-3.11-.04-5.29v-16.04Z"/><path class="e" d="M472.18,91.19c-7.77,17.46-50.28,48.51-99.16,73.61-90.99,46.72-13.16,63.98,49.29,30.7,98.02-52.23,57.36-125.17,34.97-147.57-23.84-23.84-57.71-40.08-95.38-45.74-38.18-5.73-77.84-.11-111.61,15.82-33.79,15.76-55.77,40.14-61.9,68.67-3.76,17.53-1.04,35.67,7.46,52.46,81.35-28.15,207.56-66.04,276.32-47.94Zm-207.85,3.77s42.38-5.35,85.74-3.62c-31.45,4.65-91.37,22.03-112.85,30.33,15.78-16.26,35.85-20.83,27.11-26.71Z"/><path class="e" d="M204.95,153.68s30.28,41.17,97.32,54.79c.52,.11,.72-.65,.22-.81-24.65-7.87-60.49-27.13-8.8-27.94h0c30.54-.31,59.94-7.53,78.01-18.45,37.36-22.57,9.92-44.45-166.74-7.59Z"/></g></g></g></g></g></svg>