<svg width="103" height="60" viewBox="0 0 103 60" fill="none" xmlns="http://www.w3.org/2000/svg">
<g style="mix-blend-mode:hard-light">
<g style="mix-blend-mode:hard-light">
<g style="mix-blend-mode:hard-light">
<g style="mix-blend-mode:hard-light">
<path d="M78.1183 46.3993V46.1709C78.1183 45.0715 78.7533 44.8891 82.4341 44.7732C90.5991 44.5448 92.8737 43.2612 92.8737 39.368V39.276C92.8737 35.3146 90.1633 33.9629 82.0323 33.9629C73.2985 33.9629 71.1909 35.7715 71.2573 39.5965V39.8249L78.7192 39.9169V39.368C78.7192 38.3368 79.4224 38.0624 81.9642 38.0624C84.9095 38.0624 85.4117 38.3368 85.4117 39.3442V39.3663C85.4117 40.2374 84.809 40.718 80.1578 40.8783C76.4379 41.0112 74.1191 41.359 72.7146 42.0629V40.9788H57.1778V44.5226L55.8141 40.9413C52.988 40.8101 50.1891 40.4504 47.4617 39.8692L44.9693 46.4163C44.1538 40.5408 38.8846 36.1737 32.2739 36.1737C30.6446 36.1737 29.0988 36.4413 27.6789 36.9288V29.7186L31.4601 23.855C30.9494 22.8237 30.5255 21.755 30.1918 20.6555H26.3305L24.4936 24.3118H24.4493L22.6345 16.355H12.4179L9.3415 24.6885L6.15446 20.6555H0V36.6987H5.93144V28.8766H5.9757L8.89716 32.6436L11.7522 28.9499H11.7965V36.6987H18.3919V23.7186L21.0818 29.918V39.1141H23.7258C21.8683 40.6328 20.5081 42.6544 19.8713 44.9794C19.9105 44.7578 19.9309 44.5311 19.9309 44.2993C19.9309 40.4658 14.8405 40.222 12.4281 40.222H6.00975V56.2652H12.738C15.6168 56.2652 19.6807 55.6959 20.2936 52.2834C22.105 56.7612 26.7153 59.8499 32.2739 59.8499C37.1992 59.8499 41.3805 57.426 43.529 53.7612H48.7216L49.3413 51.6561H53.0152L53.5685 53.7612H60.6951L57.903 46.4266H61.6485V53.7612H65.193L61.6485 55.2152V57.0203H68.2439V46.4283H70.755V50.5413H92.94V46.3737C91.0997 46.3959 90.0952 46.3959 88.5562 46.3959H78.1166L78.1183 46.3993ZM12.6069 44.7476H12.8503C13.6692 44.7476 14.0897 45.1686 14.0897 45.7448C14.0897 46.3209 13.6913 46.7419 12.8503 46.7419H12.6069V44.7476ZM12.8946 51.9715H12.6069V49.4896H12.8946C13.9127 49.4896 14.4217 50.0436 14.4217 50.7305C14.4217 51.4175 13.9348 51.9715 12.8946 51.9715ZM17.5202 47.5618V47.5175C18.7988 47.0692 19.4866 46.297 19.7709 45.3953C19.5734 46.2357 19.4679 47.1118 19.4679 48.0169C19.4679 48.2913 19.4815 48.5607 19.5002 48.83C19.0644 48.3374 18.431 47.901 17.5219 47.5635L17.5202 47.5618ZM32.2756 54.5573C28.7464 54.5573 25.9015 51.709 25.9015 48.1754C25.9015 44.6419 28.7481 41.7936 32.2756 41.7936C35.8031 41.7936 38.6497 44.6436 38.6497 48.1754C38.6497 51.7073 35.8048 54.5573 32.2756 54.5573ZM50.4955 47.6283L51.2038 44.3709H51.248L51.9563 47.6283H50.4955Z" fill="white"/>
</g>
</g>
<g style="mix-blend-mode:hard-light">
<g style="mix-blend-mode:hard-light">
<path d="M92.6472 33.0407C93.1409 33.0339 93.5223 33.0339 93.7692 33.0339H94.1267V35.2498C94.1267 35.6384 94.1267 35.9112 94.1199 36.1754H95.5125C95.5057 35.9043 95.5057 35.6316 95.5057 35.243V33.0339H96.0488C96.2956 33.0339 96.6157 33.0339 96.9851 33.0407V31.7947H92.6455V33.0407H92.6472Z" fill="white"/>
</g>
</g>
<g style="mix-blend-mode:hard-light">
<g style="mix-blend-mode:hard-light">
<path d="M102.942 32.5413C102.942 32.2447 102.942 32.0163 102.949 31.7947H100.792L100.458 33.356C100.366 33.7822 100.279 34.2322 100.204 34.6515C100.118 34.2322 100.033 33.7805 99.9389 33.356L99.6001 31.7947H97.3562C97.363 32.0163 97.363 32.2447 97.363 32.5481V35.2515C97.363 35.6401 97.363 35.9129 97.3562 36.1771H98.6875C98.6807 35.6827 98.6807 35.4049 98.6807 34.9737C98.6807 34.5663 98.6739 33.7021 98.6739 33.0475C98.7965 33.5418 98.9514 34.1333 99.0927 34.6839L99.4809 36.1771H100.77L101.151 34.7026C101.292 34.1538 101.447 33.5606 101.57 33.068C101.563 33.7839 101.558 34.6856 101.558 34.9754C101.558 35.4697 101.558 35.6913 101.551 36.1788H102.944C102.937 35.9197 102.937 35.6487 102.937 35.2771V32.543L102.942 32.5413Z" fill="white"/>
</g>
</g>
<g style="mix-blend-mode:hard-light">
<g style="mix-blend-mode:hard-light">
<path d="M80.3877 15.5437C79.0649 18.5198 71.8277 23.8124 63.5059 28.0908C48.0151 36.0545 61.2655 38.9965 71.8975 33.3238C88.5852 24.4209 81.6629 11.988 77.851 8.16979C73.7923 4.10616 68.026 1.33798 61.6128 0.373204C55.1127 -0.6035 48.3607 0.354454 42.6114 3.06979C36.8587 5.75616 33.1167 9.91184 32.0731 14.7749C31.4329 17.763 31.896 20.855 33.3431 23.717C47.1928 18.9187 68.6798 12.4601 80.386 15.5454L80.3877 15.5437ZM45.0017 16.1863C45.0017 16.1863 52.2168 15.2743 59.5988 15.5692C54.2445 16.3618 44.0432 19.3243 40.3863 20.7391C43.0728 17.9675 46.4897 17.1885 45.0017 16.1863Z" fill="white"/>
</g>
</g>
<g style="mix-blend-mode:hard-light">
<g style="mix-blend-mode:hard-light">
<path d="M34.8923 26.1953C34.8923 26.1953 40.0474 33.2129 51.4609 35.5345C51.5494 35.5532 51.5834 35.4237 51.4983 35.3964C47.3017 34.055 41.2 30.772 50.0001 30.6339C55.1995 30.5811 60.2048 29.3504 63.2812 27.489C69.6416 23.6419 64.97 19.9123 34.894 26.1953H34.8923Z" fill="white"/>
</g>
</g>
</g>
</g>
</svg>
