<svg width="18" height="26" viewBox="0 0 18 26" fill="none" xmlns="http://www.w3.org/2000/svg">
<path d="M8.76777 11.8991C7.93729 11.8991 7.14082 11.5692 6.55358 10.982C5.96633 10.3947 5.63643 9.59826 5.63643 8.76777C5.63643 7.93729 5.96633 7.14082 6.55358 6.55358C7.14082 5.96633 7.93729 5.63643 8.76777 5.63643C9.59826 5.63643 10.3947 5.96633 10.982 6.55358C11.5692 7.14082 11.8991 7.93729 11.8991 8.76777C11.8991 9.17899 11.8181 9.58618 11.6608 9.96609C11.5034 10.346 11.2727 10.6912 10.982 10.982C10.6912 11.2727 10.346 11.5034 9.96609 11.6608C9.58618 11.8181 9.17899 11.8991 8.76777 11.8991ZM8.76777 0C6.44242 0 4.2123 0.923745 2.56802 2.56802C0.923745 4.2123 0 6.44242 0 8.76777C0 15.3436 8.76777 25.0508 8.76777 25.0508C8.76777 25.0508 17.5355 15.3436 17.5355 8.76777C17.5355 6.44242 16.6118 4.2123 14.9675 2.56802C13.3232 0.923745 11.0931 0 8.76777 0Z" fill="#FF4B4B"/>
</svg>
