<svg width="1440" height="61" viewBox="0 0 1440 61" fill="none" xmlns="http://www.w3.org/2000/svg">
<path d="M1440 56.8384C1298.72 69.6066 1254.03 39.7065 1215.8 37.7515C1177.57 35.7965 1162.35 53.8756 1130.47 51.6182C1098.6 49.3608 1085.17 31.1205 1046.6 29.7499C995.63 27.936 958.613 59.8616 920.676 59.8616C882.739 59.8616 899.611 7.82118 862.19 2.22814C786.381 -9.1091 726.847 62.4516 654.361 36.5422C647.989 34.2181 641.185 32.3905 634.102 31.1003C602.214 24.9429 580.649 39.4647 548.776 37.2577C516.904 35.0507 499.791 17.9693 451.999 20.7507C413.611 22.9677 392.771 56.8384 354.867 56.8384C316.962 56.8384 308.285 9.33282 270.848 3.73978C195.039 -7.59747 136.182 68.0043 79.7769 44.9066C32.0011 25.3561 5.38728 37.0259 0 48.9376" stroke="#FF4B4B" stroke-miterlimit="10"/>
</svg>
