<svg width="1440" height="127" viewBox="0 0 1440 127" fill="none" xmlns="http://www.w3.org/2000/svg">
<path d="M1440 127V46.3993C1311.2 42.3863 1254.02 29.3441 1215.8 27.3978C1177.57 25.4515 1162.34 35.7248 1130.47 33.5277C1098.6 31.3306 1085.03 21.88 1046.6 19.422C1008.16 16.9641 984.06 33.5277 946.123 33.5277C908.186 33.5277 893.669 13.9544 856.248 8.38635C780.438 -2.89013 726.823 51.9472 654.336 26.1638C647.964 23.8501 641.16 22.0307 634.077 20.7463C602.204 14.6366 580.671 29.0732 548.767 26.8761C516.862 24.679 503.329 15.2285 464.892 12.7705C426.455 10.3126 402.421 26.8761 364.532 26.8761C326.644 26.8761 312.078 7.30284 274.657 1.73483C198.848 -9.54165 138.329 38.5238 77.2454 20.7965C28.3723 6.57047 5.38734 26.7156 0 38.574V127H1440Z" fill="white"/>
</svg>
